<mxfile host="app.diagrams.net" modified="2024-05-22T23:15:51.386Z" agent="Mozilla/5.0 (Windows NT 10.0; Win64; x64) AppleWebKit/537.36 (KHTML, like Gecko) Chrome/125.0.0.0 Safari/537.36" etag="A2rV3vanhghzQ__TfZdh" version="24.4.6" type="device">
  <diagram name="Página-1" id="Kj-l54VVts99x-T9ZCAx">
    <mxGraphModel dx="880" dy="434" grid="0" gridSize="10" guides="1" tooltips="1" connect="1" arrows="1" fold="1" page="1" pageScale="1" pageWidth="530" pageHeight="670" background="#FFFFFF" math="0" shadow="0">
      <root>
        <mxCell id="0" />
        <mxCell id="1" parent="0" />
        <mxCell id="TvcZUfRdJttuHaKvoJkn-2" style="edgeStyle=orthogonalEdgeStyle;rounded=0;orthogonalLoop=1;jettySize=auto;html=1;exitX=0.5;exitY=1;exitDx=0;exitDy=0;exitPerimeter=0;" parent="1" source="hUrVYdN8rmowNbnYmtl_-1" target="hUrVYdN8rmowNbnYmtl_-16" edge="1">
          <mxGeometry relative="1" as="geometry" />
        </mxCell>
        <mxCell id="hUrVYdN8rmowNbnYmtl_-1" value="&lt;span&gt;Resultados e estatísticas de partidas no site oficial da NBA&lt;/span&gt;" style="shape=note;whiteSpace=wrap;html=1;backgroundOutline=1;darkOpacity=0.05;size=12;rounded=0;fillColor=#f5f5f5;strokeColor=#666666;fontColor=#333333;fontStyle=1" parent="1" vertex="1">
          <mxGeometry x="488" y="35" width="80" height="100" as="geometry" />
        </mxCell>
        <mxCell id="TvcZUfRdJttuHaKvoJkn-15" style="edgeStyle=orthogonalEdgeStyle;rounded=0;orthogonalLoop=1;jettySize=auto;html=1;exitX=0.5;exitY=1;exitDx=0;exitDy=0;entryX=0.5;entryY=0;entryDx=0;entryDy=0;" parent="1" source="hUrVYdN8rmowNbnYmtl_-16" target="TvcZUfRdJttuHaKvoJkn-3" edge="1">
          <mxGeometry relative="1" as="geometry" />
        </mxCell>
        <mxCell id="hUrVYdN8rmowNbnYmtl_-16" value="Extrair os dados" style="rounded=0;whiteSpace=wrap;html=1;" parent="1" vertex="1">
          <mxGeometry x="468" y="181" width="120" height="60" as="geometry" />
        </mxCell>
        <mxCell id="hUrVYdN8rmowNbnYmtl_-87" value="&lt;h1 style=&quot;margin-top: 0px;&quot;&gt;NBA Analytics&lt;/h1&gt;&lt;p&gt;Lorem ipsum dolor sit amet, consectetur adipisicing elit, sed do eiusmod tempor incididunt ut labore et dolore magna aliqua. modelagem relacional, pipeline extracao&amp;nbsp;&lt;/p&gt;" style="text;html=1;whiteSpace=wrap;overflow=hidden;rounded=0;" parent="1" vertex="1">
          <mxGeometry x="30" y="27" width="301" height="120" as="geometry" />
        </mxCell>
        <mxCell id="TvcZUfRdJttuHaKvoJkn-16" style="edgeStyle=orthogonalEdgeStyle;rounded=0;orthogonalLoop=1;jettySize=auto;html=1;exitX=0.5;exitY=1;exitDx=0;exitDy=0;entryX=0.5;entryY=0;entryDx=0;entryDy=0;" parent="1" source="TvcZUfRdJttuHaKvoJkn-3" target="TvcZUfRdJttuHaKvoJkn-5" edge="1">
          <mxGeometry relative="1" as="geometry" />
        </mxCell>
        <mxCell id="TvcZUfRdJttuHaKvoJkn-17" style="edgeStyle=orthogonalEdgeStyle;rounded=0;orthogonalLoop=1;jettySize=auto;html=1;exitX=0.25;exitY=1;exitDx=0;exitDy=0;entryX=0.5;entryY=0;entryDx=0;entryDy=0;" parent="1" source="TvcZUfRdJttuHaKvoJkn-3" target="TvcZUfRdJttuHaKvoJkn-4" edge="1">
          <mxGeometry relative="1" as="geometry" />
        </mxCell>
        <mxCell id="TvcZUfRdJttuHaKvoJkn-18" style="edgeStyle=orthogonalEdgeStyle;rounded=0;orthogonalLoop=1;jettySize=auto;html=1;exitX=0.75;exitY=1;exitDx=0;exitDy=0;entryX=0.5;entryY=0;entryDx=0;entryDy=0;" parent="1" source="TvcZUfRdJttuHaKvoJkn-3" target="TvcZUfRdJttuHaKvoJkn-6" edge="1">
          <mxGeometry relative="1" as="geometry" />
        </mxCell>
        <mxCell id="TvcZUfRdJttuHaKvoJkn-3" value="Filtrar os dados por data" style="rounded=0;whiteSpace=wrap;html=1;" parent="1" vertex="1">
          <mxGeometry x="468" y="261" width="120" height="60" as="geometry" />
        </mxCell>
        <mxCell id="TvcZUfRdJttuHaKvoJkn-20" style="edgeStyle=orthogonalEdgeStyle;rounded=0;orthogonalLoop=1;jettySize=auto;html=1;exitX=0.5;exitY=1;exitDx=0;exitDy=0;entryX=0.5;entryY=0;entryDx=0;entryDy=0;" parent="1" source="TvcZUfRdJttuHaKvoJkn-4" target="TvcZUfRdJttuHaKvoJkn-7" edge="1">
          <mxGeometry relative="1" as="geometry" />
        </mxCell>
        <mxCell id="TvcZUfRdJttuHaKvoJkn-4" value="Selecionar as informações referentes aos jogadores (nome,id)" style="rounded=0;whiteSpace=wrap;html=1;" parent="1" vertex="1">
          <mxGeometry x="338" y="365" width="120" height="60" as="geometry" />
        </mxCell>
        <mxCell id="TvcZUfRdJttuHaKvoJkn-21" style="edgeStyle=orthogonalEdgeStyle;rounded=0;orthogonalLoop=1;jettySize=auto;html=1;exitX=0.5;exitY=1;exitDx=0;exitDy=0;entryX=0.5;entryY=0;entryDx=0;entryDy=0;" parent="1" source="TvcZUfRdJttuHaKvoJkn-5" target="TvcZUfRdJttuHaKvoJkn-8" edge="1">
          <mxGeometry relative="1" as="geometry" />
        </mxCell>
        <mxCell id="TvcZUfRdJttuHaKvoJkn-5" value="Selecionar informações dos resultados das partidas (estatísticas)" style="rounded=0;whiteSpace=wrap;html=1;" parent="1" vertex="1">
          <mxGeometry x="468" y="365" width="120" height="60" as="geometry" />
        </mxCell>
        <mxCell id="TvcZUfRdJttuHaKvoJkn-22" style="edgeStyle=orthogonalEdgeStyle;rounded=0;orthogonalLoop=1;jettySize=auto;html=1;exitX=0.5;exitY=1;exitDx=0;exitDy=0;entryX=0.5;entryY=0;entryDx=0;entryDy=0;" parent="1" source="TvcZUfRdJttuHaKvoJkn-6" target="TvcZUfRdJttuHaKvoJkn-9" edge="1">
          <mxGeometry relative="1" as="geometry" />
        </mxCell>
        <mxCell id="TvcZUfRdJttuHaKvoJkn-6" value="Selecionar informações referentes às partidas (data, equipes,etc.)" style="rounded=0;whiteSpace=wrap;html=1;" parent="1" vertex="1">
          <mxGeometry x="598" y="365" width="120" height="60" as="geometry" />
        </mxCell>
        <mxCell id="TvcZUfRdJttuHaKvoJkn-7" value="Remover duplicatas" style="rounded=0;whiteSpace=wrap;html=1;" parent="1" vertex="1">
          <mxGeometry x="338" y="463" width="120" height="60" as="geometry" />
        </mxCell>
        <mxCell id="TvcZUfRdJttuHaKvoJkn-8" value="Calcular novas medidas e organizar os dados" style="rounded=0;whiteSpace=wrap;html=1;" parent="1" vertex="1">
          <mxGeometry x="468" y="463" width="120" height="60" as="geometry" />
        </mxCell>
        <mxCell id="TvcZUfRdJttuHaKvoJkn-9" value="Remover duplicatas" style="rounded=0;whiteSpace=wrap;html=1;" parent="1" vertex="1">
          <mxGeometry x="598" y="463" width="120" height="60" as="geometry" />
        </mxCell>
        <mxCell id="TvcZUfRdJttuHaKvoJkn-26" style="edgeStyle=orthogonalEdgeStyle;rounded=0;orthogonalLoop=1;jettySize=auto;html=1;exitX=0.5;exitY=1;exitDx=0;exitDy=0;exitPerimeter=0;entryX=0.5;entryY=0;entryDx=0;entryDy=0;" parent="1" source="TvcZUfRdJttuHaKvoJkn-11" target="TvcZUfRdJttuHaKvoJkn-13" edge="1">
          <mxGeometry relative="1" as="geometry" />
        </mxCell>
        <mxCell id="TvcZUfRdJttuHaKvoJkn-27" style="edgeStyle=orthogonalEdgeStyle;rounded=0;orthogonalLoop=1;jettySize=auto;html=1;exitX=0.5;exitY=1;exitDx=0;exitDy=0;exitPerimeter=0;entryX=0.5;entryY=0;entryDx=0;entryDy=0;" parent="1" source="TvcZUfRdJttuHaKvoJkn-11" target="TvcZUfRdJttuHaKvoJkn-14" edge="1">
          <mxGeometry relative="1" as="geometry" />
        </mxCell>
        <mxCell id="TvcZUfRdJttuHaKvoJkn-11" value="Banco de Dados" style="shape=cylinder3;whiteSpace=wrap;html=1;boundedLbl=1;backgroundOutline=1;size=15;fillColor=#f5f5f5;fontColor=#333333;strokeColor=#666666;fontStyle=1;fontSize=13;" parent="1" vertex="1">
          <mxGeometry x="479.25" y="575" width="97.5" height="119" as="geometry" />
        </mxCell>
        <mxCell id="TvcZUfRdJttuHaKvoJkn-12" value="* As tabelas referentes às equipes (Teams) e as datas (Date) também são divididas e inseridas em suas respectivas tabelas-dimensão. No entanto, esse proceso não precisa ser repetidos, pois essas informações praticamente nunca se alteram" style="text;html=1;align=center;verticalAlign=middle;whiteSpace=wrap;rounded=0;" parent="1" vertex="1">
          <mxGeometry x="758" y="422" width="239" height="30" as="geometry" />
        </mxCell>
        <mxCell id="TvcZUfRdJttuHaKvoJkn-13" value="Dashboard" style="rounded=1;whiteSpace=wrap;html=1;fillColor=#dae8fc;strokeColor=#6c8ebf;fontStyle=1" parent="1" vertex="1">
          <mxGeometry x="343" y="764" width="120" height="60" as="geometry" />
        </mxCell>
        <mxCell id="TvcZUfRdJttuHaKvoJkn-14" value="Análises" style="rounded=1;whiteSpace=wrap;html=1;fillColor=#dae8fc;strokeColor=#6c8ebf;fontStyle=1" parent="1" vertex="1">
          <mxGeometry x="592" y="764" width="120" height="60" as="geometry" />
        </mxCell>
        <mxCell id="TvcZUfRdJttuHaKvoJkn-23" style="edgeStyle=orthogonalEdgeStyle;rounded=0;orthogonalLoop=1;jettySize=auto;html=1;exitX=0.5;exitY=1;exitDx=0;exitDy=0;entryX=0.5;entryY=0;entryDx=0;entryDy=0;entryPerimeter=0;" parent="1" source="TvcZUfRdJttuHaKvoJkn-8" target="TvcZUfRdJttuHaKvoJkn-11" edge="1">
          <mxGeometry relative="1" as="geometry" />
        </mxCell>
        <mxCell id="TvcZUfRdJttuHaKvoJkn-24" style="edgeStyle=orthogonalEdgeStyle;rounded=0;orthogonalLoop=1;jettySize=auto;html=1;exitX=0.5;exitY=1;exitDx=0;exitDy=0;entryX=0;entryY=0.5;entryDx=0;entryDy=0;entryPerimeter=0;" parent="1" source="TvcZUfRdJttuHaKvoJkn-7" target="TvcZUfRdJttuHaKvoJkn-11" edge="1">
          <mxGeometry relative="1" as="geometry" />
        </mxCell>
        <mxCell id="TvcZUfRdJttuHaKvoJkn-25" style="edgeStyle=orthogonalEdgeStyle;rounded=0;orthogonalLoop=1;jettySize=auto;html=1;exitX=0.5;exitY=1;exitDx=0;exitDy=0;entryX=1;entryY=0.5;entryDx=0;entryDy=0;entryPerimeter=0;" parent="1" source="TvcZUfRdJttuHaKvoJkn-9" target="TvcZUfRdJttuHaKvoJkn-11" edge="1">
          <mxGeometry relative="1" as="geometry" />
        </mxCell>
        <mxCell id="TvcZUfRdJttuHaKvoJkn-28" value="Tabelas do BD" style="swimlane;fontStyle=0;childLayout=stackLayout;horizontal=1;startSize=26;fillColor=#E6E6E6;horizontalStack=0;resizeParent=1;resizeParentMax=0;resizeLast=0;collapsible=1;marginBottom=0;html=1;" parent="1" vertex="1">
          <mxGeometry x="697" y="559" width="140" height="156" as="geometry">
            <mxRectangle x="688" y="562" width="113" height="26" as="alternateBounds" />
          </mxGeometry>
        </mxCell>
        <mxCell id="TvcZUfRdJttuHaKvoJkn-29" value="BoxScores (fact)" style="text;strokeColor=none;fillColor=none;align=left;verticalAlign=top;spacingLeft=4;spacingRight=4;overflow=hidden;rotatable=0;points=[[0,0.5],[1,0.5]];portConstraint=eastwest;whiteSpace=wrap;html=1;" parent="TvcZUfRdJttuHaKvoJkn-28" vertex="1">
          <mxGeometry y="26" width="140" height="26" as="geometry" />
        </mxCell>
        <mxCell id="TvcZUfRdJttuHaKvoJkn-30" value="Players (dim)" style="text;strokeColor=none;fillColor=none;align=left;verticalAlign=top;spacingLeft=4;spacingRight=4;overflow=hidden;rotatable=0;points=[[0,0.5],[1,0.5]];portConstraint=eastwest;whiteSpace=wrap;html=1;" parent="TvcZUfRdJttuHaKvoJkn-28" vertex="1">
          <mxGeometry y="52" width="140" height="26" as="geometry" />
        </mxCell>
        <mxCell id="TvcZUfRdJttuHaKvoJkn-31" value="Matches (dim)" style="text;strokeColor=none;fillColor=none;align=left;verticalAlign=top;spacingLeft=4;spacingRight=4;overflow=hidden;rotatable=0;points=[[0,0.5],[1,0.5]];portConstraint=eastwest;whiteSpace=wrap;html=1;" parent="TvcZUfRdJttuHaKvoJkn-28" vertex="1">
          <mxGeometry y="78" width="140" height="26" as="geometry" />
        </mxCell>
        <mxCell id="TvcZUfRdJttuHaKvoJkn-33" value="Teams (dim)" style="text;strokeColor=none;fillColor=none;align=left;verticalAlign=top;spacingLeft=4;spacingRight=4;overflow=hidden;rotatable=0;points=[[0,0.5],[1,0.5]];portConstraint=eastwest;whiteSpace=wrap;html=1;" parent="TvcZUfRdJttuHaKvoJkn-28" vertex="1">
          <mxGeometry y="104" width="140" height="26" as="geometry" />
        </mxCell>
        <mxCell id="TvcZUfRdJttuHaKvoJkn-32" value="Date (dim)" style="text;strokeColor=none;fillColor=none;align=left;verticalAlign=top;spacingLeft=4;spacingRight=4;overflow=hidden;rotatable=0;points=[[0,0.5],[1,0.5]];portConstraint=eastwest;whiteSpace=wrap;html=1;" parent="TvcZUfRdJttuHaKvoJkn-28" vertex="1">
          <mxGeometry y="130" width="140" height="26" as="geometry" />
        </mxCell>
      </root>
    </mxGraphModel>
  </diagram>
</mxfile>
